REM MD5 ee6561a956bac8a0111cb0e2ebc1cd3a
FILE "Army Men - Air Attack (USA).bin" BINARY
  TRACK 01 MODE2/2352
    INDEX 01 00:00:00
  TRACK 02 AUDIO
    INDEX 00 44:24:67
    INDEX 01 44:26:67
  TRACK 03 AUDIO
    INDEX 00 45:26:68
    INDEX 01 45:28:68
  TRACK 04 AUDIO
    INDEX 00 46:30:35
    INDEX 01 46:32:35
REM LEADOUT 49:32:37
